# xmcd CD database file generated by Grip 2.96
# 
# Track frame offsets:
#       150
#       17332
#       42672
#       72817
#       94900
#       119385
#       136492
#       156572
#       172855
#       200307
#       232192
#       248992
#       286087
# 
# Disc length: 4057 seconds
# 
# Revision: 0
# Processed by: cddbd v1.4PL0 Copyright (c) Steve Scherf et al.
# Submitted via: Grip 2.96
# 
DISCID=b60fd70d
DTITLE=Itamara Koorax - Rio Vermelho
DYEAR=1900
DGENRE=
TTITLE0=Sonho De Um Sonho
TTITLE1=Retrato Em Branco E Preto
TTITLE2=Correnteza
TTITLE3=Preciso Aprender A Ser Só
TTITLE4=Tudo Acabado
TTITLE5=Ternura Antiga
TTITLE6=Não Sei
TTITLE7=É Preciso Dizer Adeus
TTITLE8=Cry Me A River
TTITLE9=Índia
TTITLE10=Rio Vermelho
TTITLE11=Se Queres Saber
TTITLE12=Empty Glass
EXTD=
EXTT0=
EXTT1=
EXTT2=
EXTT3=
EXTT4=
EXTT5=
EXTT6=
EXTT7=
EXTT8=
EXTT9=
EXTT10=
EXTT11=
EXTT12=
PLAYORDER=
